<svg width="60" height="25" viewBox="0 0 60 25" fill="none" xmlns="http://www.w3.org/2000/svg">
<path d="M17.5043 14.4456C17.359 14.4828 17.287 14.5794 17.2606 14.7247C17.1364 15.4167 16.9899 16.1051 16.9605 16.8097C16.9377 17.1379 16.967 17.4677 17.0475 17.7868C17.1994 18.3269 17.5427 18.699 18.09 18.8071C19.0905 19.0051 20.0106 18.8293 20.69 18.0058C21.2007 17.3859 21.4102 16.6723 21.0867 15.8788C21.0525 15.7948 21.0339 15.7084 21.1467 15.6856C21.5122 15.6117 21.8795 15.5055 22.2504 15.6598C22.676 15.8398 22.8854 16.1747 22.8902 16.62C22.898 17.4435 22.5301 18.1007 21.9017 18.6042C21.1413 19.2146 20.2609 19.5705 19.3018 19.7391C18.62 19.8592 17.934 19.8412 17.2516 19.7704C16.2811 19.6695 15.3676 19.3952 14.588 18.7753C13.7478 18.1097 13.3523 17.2148 13.2778 16.1717C13.2514 15.8074 13.2736 15.4401 13.2322 15.0668C13.1074 15.3669 12.9861 15.667 12.8571 15.967C12.4136 16.9897 11.8242 17.9068 10.9323 18.6054C10.3509 19.0634 9.66967 19.378 8.94397 19.5237C8.89861 19.5299 8.8529 19.5331 8.80713 19.5333C8.7135 19.4877 8.61987 19.5363 8.52564 19.5363C6.62909 19.5315 4.73274 19.5315 2.83658 19.5363C2.60852 19.5363 2.38105 19.5411 2.12598 19.5237C2.16859 19.4607 2.2088 19.4079 2.1908 19.3436C2.73635 18.4374 2.92541 17.4195 3.12407 16.4028C3.42416 14.8507 3.73925 13.3005 4.04594 11.749C4.14857 11.2305 4.24459 10.7107 4.34602 10.1916C4.35672 10.1641 4.36515 10.1358 4.37123 10.1069C4.55008 9.23188 4.72854 8.35683 4.90659 7.48177C4.99817 7.19178 4.99985 6.88087 4.91139 6.58991C4.88258 6.44467 4.85137 6.29943 4.82436 6.15419C4.79736 5.98974 4.87718 5.95733 5.02842 5.95853C6.11954 5.96393 7.21126 5.95853 8.30238 5.95853C8.55985 5.95853 8.55985 5.95853 8.56826 6.213C8.56739 6.25879 8.56378 6.30448 8.55745 6.34984C8.3618 7.35013 8.16554 8.35042 7.96868 9.35072C7.90866 9.6454 7.85645 9.94069 7.79463 10.2666C7.99869 10.1429 8.16974 10.0373 8.34259 9.93469C9.10661 9.47975 9.90305 9.14906 10.8225 9.21148C11.9226 9.2871 12.7347 9.78885 13.2064 10.7995C13.5467 11.5294 13.6175 12.3048 13.5665 13.097C13.5581 13.235 13.5509 13.3731 13.5431 13.5105C13.6394 13.3198 13.7259 13.1243 13.8024 12.9248C14.0539 12.3324 14.4062 11.8006 14.7933 11.2899C14.8144 11.2723 14.8344 11.2534 14.8533 11.2335C15.4858 10.4929 16.2995 9.92898 17.215 9.59679C18.2323 9.21273 19.3246 9.06894 20.4067 9.17667C20.9691 9.23668 21.4948 9.41374 22.0038 9.6514L22.0068 9.65501C22.4065 9.88547 22.7924 10.1351 23.1087 10.4778C23.6092 11.0216 23.8217 11.6782 23.8601 12.3984C23.8879 13.0154 23.8323 13.6334 23.6951 14.2355C23.6771 14.3178 23.6693 14.412 23.5576 14.4306C23.5416 14.4184 23.5231 14.4097 23.5035 14.405C23.4838 14.4004 23.4634 14.3999 23.4436 14.4036H17.5805C17.5529 14.4051 17.5255 14.4081 17.4983 14.4126L17.5043 14.4456ZM17.6117 13.5363L17.6009 13.5645C17.6156 13.5701 17.6309 13.5739 17.6465 13.576H19.8936C19.9284 13.576 19.9632 13.576 19.9836 13.5387C20.1726 13.4787 20.136 13.3029 20.1672 13.1654C20.351 12.3757 20.4534 11.5693 20.4727 10.7587C20.4805 10.2954 20.1726 9.99351 19.7129 9.9785C19.0647 9.95509 18.6164 10.2606 18.3253 10.8187C17.9136 11.6074 17.7011 12.459 17.5391 13.3269C17.5235 13.4103 17.5277 13.4865 17.6117 13.5363ZM6.53186 18.6234C6.64169 18.6234 6.75093 18.6234 6.86076 18.6234C6.90144 18.621 6.94172 18.614 6.98079 18.6024C8.01549 18.3263 8.73871 17.707 9.0496 16.6675C9.4007 15.4971 9.64437 14.301 9.87304 13.1012C9.98182 12.5216 9.93797 11.9237 9.7458 11.3661C9.70974 11.2369 9.63517 11.1217 9.53203 11.036C9.42888 10.9502 9.30205 10.8979 9.16843 10.886C8.77111 10.8319 8.43021 10.9604 8.13973 11.2311C7.61278 11.7214 7.33009 12.3444 7.18905 13.0352C6.96639 14.1245 6.75633 15.2156 6.54327 16.3067C6.40282 17.027 6.26838 17.7436 6.12314 18.4608C6.09854 18.5856 6.12314 18.6342 6.25518 18.6264C6.34701 18.6186 6.43944 18.6234 6.53186 18.6234Z" fill="#B7B7B7"/>
<path d="M35.8366 19.8058C35.2364 19.8466 34.6417 19.8886 34.0409 19.8478C32.9558 19.774 31.9073 19.5657 30.9434 19.0375C30.5725 18.8347 30.2364 18.5808 30.0323 18.1937C29.7214 17.6037 29.8781 16.8841 30.3264 16.3566C31.1546 15.3837 32.9672 15.2126 34.0913 16.0751C34.2253 16.1748 34.3463 16.2909 34.4514 16.4208C34.5684 16.5678 34.5618 16.6518 34.4172 16.7719C34.2726 16.8919 34.1171 17.003 33.9971 17.1554C33.4695 17.8258 33.7522 18.7429 34.5708 18.9775C35.2857 19.1822 35.8816 19.0069 36.3906 18.444C37.3287 17.4051 37.8982 16.1837 38.2511 14.8477C38.3303 14.5476 38.3916 14.2421 38.4522 13.9379C38.472 13.8394 38.508 13.705 38.4192 13.648C38.3465 13.6012 38.2547 13.7002 38.1791 13.7524C37.4475 14.2686 36.6565 14.6599 35.7784 14.8495C34.7125 15.0794 33.6532 15.0896 32.6143 14.6947C31.4097 14.2391 30.5323 13.0016 30.4993 11.7166C30.4933 11.0587 30.6001 10.4047 30.8149 9.78285C30.8306 9.73423 30.8408 9.68322 30.8534 9.6334C30.8756 9.58779 30.9008 9.54277 30.9194 9.49536C31.1425 8.92691 31.4621 8.40125 31.8641 7.94151C32.6677 7.02564 33.6922 6.45187 34.8181 6.03535C35.502 5.79141 36.2164 5.64355 36.9409 5.59602C37.8382 5.5252 38.7235 5.57262 39.5961 5.81029C40.0199 5.93668 40.4299 6.10538 40.8199 6.31383C40.838 6.33454 40.8581 6.35344 40.8799 6.37025C41.3441 6.66076 41.7595 7.02272 42.1108 7.44276C42.4427 7.83048 42.6834 8.274 42.8953 8.73554C42.9421 8.88738 42.9865 9.04043 43.0375 9.19167C43.1479 9.51817 43.1666 9.86267 43.2392 10.197C43.2428 10.321 43.2468 10.445 43.2512 10.5691V11.087C43.2512 11.2023 43.2446 11.3175 43.241 11.4327C43.2128 11.6548 43.1918 11.8781 43.1539 12.0983C43.0975 12.432 43.0297 12.7639 42.9667 13.0964C42.9627 13.0994 42.96 13.1038 42.9591 13.1087C42.9582 13.1136 42.9592 13.1186 42.9619 13.1228C42.9299 13.1779 42.9106 13.2394 42.9055 13.3029L42.8947 13.3689C42.7574 13.7618 42.6198 14.1551 42.4818 14.5488C42.384 14.7246 42.299 14.9071 42.2273 15.095L42.2315 15.0908L42.2075 15.1352C42.2054 15.1362 42.2036 15.1375 42.2021 15.1392C42.2006 15.1409 42.1995 15.1428 42.1988 15.145C42.198 15.1471 42.1977 15.1493 42.1979 15.1516C42.198 15.1538 42.1987 15.156 42.1997 15.158C42.0958 15.3157 42.0054 15.482 41.9296 15.655C41.8464 15.7602 41.7763 15.875 41.7207 15.9971L41.2328 16.6873C41.1269 16.7916 41.0325 16.9071 40.9513 17.0318L40.6296 17.3793C40.6274 17.379 40.6251 17.3792 40.6229 17.3799C40.6207 17.3805 40.6187 17.3816 40.617 17.3831C40.6152 17.3845 40.6138 17.3863 40.6128 17.3884C40.6118 17.3904 40.6112 17.3926 40.611 17.3949C40.5413 17.4483 40.4805 17.5126 40.431 17.5851L39.7065 18.2129C39.281 18.5121 38.8403 18.7891 38.3862 19.0429L37.7632 19.3214C37.5387 19.3928 37.3148 19.4655 37.0904 19.5357C36.6865 19.6593 36.2585 19.7157 35.8366 19.8058ZM39.5073 9.03083C39.5096 8.57403 39.4605 8.11843 39.3608 7.67263C39.245 7.15228 38.9875 6.72435 38.4606 6.5323C38.0459 6.38405 37.6203 6.41226 37.2038 6.5443C36.585 6.73696 36.1757 7.17689 35.8324 7.69724C35.3457 8.43425 35.0732 9.25049 34.9039 10.1117C34.7449 10.922 34.7239 11.7232 34.9424 12.5238C35.0852 13.0514 35.4333 13.4787 36.0227 13.5441C36.7633 13.624 37.4109 13.3995 37.9306 12.8839C39.0007 11.8276 39.4905 10.5223 39.5073 9.02842V9.03083Z" fill="#B7B7B7"/>
<path d="M24.8615 11.569L24.8765 11.503C24.9365 11.1933 25.0032 10.8842 25.0566 10.5727C25.0878 10.3974 25.026 10.3326 24.8495 10.3524C24.718 10.3671 24.5855 10.3707 24.4534 10.3632C24.3448 10.356 24.3286 10.3086 24.3706 10.2162C24.4028 10.149 24.4498 10.0899 24.508 10.0433C24.7619 9.82428 25.0536 9.65863 25.3207 9.45817C25.9124 9.01524 26.3626 8.43788 26.8295 7.87431C27.4063 7.18051 28.0238 6.53172 28.8191 6.08099C29.2722 5.82411 29.7427 5.61045 30.2709 5.56364C30.3567 5.55463 30.4432 5.55463 30.529 5.56364C30.604 5.57264 30.7252 5.56003 30.7324 5.64706C30.7392 5.6991 30.7311 5.75199 30.709 5.79958C30.6869 5.84718 30.6517 5.88753 30.6076 5.91594C30.5236 5.96555 30.4415 6.01877 30.3615 6.07559C29.6779 6.55573 29.3058 7.24533 29.0597 8.01775C28.9437 8.39256 28.8473 8.7732 28.7711 9.15808C28.7302 9.35614 28.7321 9.35674 28.9415 9.35674C29.3016 9.35674 29.6563 9.35674 30.0134 9.35674C30.1887 9.35674 30.2187 9.39635 30.1839 9.5626C30.1335 9.80267 30.086 10.0475 30.0356 10.2894C30.026 10.3332 30.0206 10.383 29.963 10.3962C29.5495 10.3962 29.136 10.3962 28.7224 10.3962C28.672 10.3962 28.6024 10.362 28.5754 10.4437C28.462 10.5391 28.4644 10.6801 28.4392 10.8038C28.2087 11.9849 27.9806 13.1653 27.755 14.3448C27.6157 15.0686 27.4903 15.7948 27.3246 16.5132C27.2886 16.6699 27.2382 16.8235 27.2046 16.9808C27.1188 17.3787 27.3282 17.6476 27.7346 17.6716C27.9998 17.6872 28.2471 17.6061 28.4944 17.5299C28.609 17.4951 28.6642 17.4951 28.6294 17.6464C28.3335 18.9277 27.1764 19.849 25.8782 19.7998C25.083 19.7692 24.4066 19.4841 23.9865 18.7573C23.7056 18.2717 23.7014 17.7568 23.8064 17.2178C24.1665 15.3639 24.5068 13.5076 24.8543 11.6518C24.8584 11.6244 24.8608 11.5967 24.8615 11.569Z" fill="#B7B7B7"/>
<path d="M41.5813 22.4417L41.4811 22.4351C41.3801 22.3974 41.2737 22.3757 41.166 22.3709L41.1516 22.3631H41.136C41.076 22.3031 40.9433 22.3571 40.9277 22.2281L40.9655 22.192L41.013 22.156C41.0151 22.1568 41.0174 22.157 41.0196 22.1567C41.0218 22.1565 41.024 22.1557 41.0259 22.1545C41.0278 22.1533 41.0294 22.1517 41.0306 22.1498C41.0318 22.1478 41.0325 22.1457 41.0328 22.1434C41.0795 22.1015 41.1263 22.0597 41.1732 22.018C41.2611 21.9689 41.3341 21.8969 41.3845 21.8097C41.4604 21.7573 41.5211 21.6856 41.5603 21.6021H41.5573C41.5668 21.6006 41.5754 21.5955 41.5813 21.588C41.5872 21.5804 41.59 21.5708 41.5891 21.5613C41.7416 21.3892 41.8588 21.189 41.9342 20.9719C41.9545 20.9445 41.9724 20.9153 41.9876 20.8849C42.2565 20.2247 42.3478 19.5201 42.4822 18.8263L42.49 18.762C42.5665 18.4881 42.6235 18.2092 42.6604 17.9272C42.6952 17.9002 42.6874 17.8624 42.685 17.8258L42.6959 17.7237C42.7813 17.404 42.8481 17.0796 42.8957 16.7521L42.8993 16.7166C42.9443 16.5949 42.9689 16.4665 42.9719 16.3367C43.0212 16.2285 43.0452 16.1105 43.0422 15.9916C43.155 15.5337 43.2498 15.0722 43.3182 14.6052L43.326 14.598L43.3218 14.5878C43.4305 14.1359 43.5271 13.6816 43.5925 13.2206C43.5967 13.2172 43.5994 13.2124 43.6003 13.2071C43.6012 13.2018 43.6001 13.1964 43.5973 13.1918C43.7108 12.7448 43.8014 12.2923 43.8686 11.836C43.8729 11.8327 43.8757 11.8279 43.8766 11.8226C43.8775 11.8172 43.8763 11.8117 43.8734 11.8072C43.9168 11.6953 43.9402 11.5767 43.9424 11.4567C43.9574 11.4081 43.976 11.3601 43.988 11.3103C44.1015 10.8349 44.1345 10.3626 43.9412 9.89746C43.9184 9.72281 43.793 9.58537 43.7612 9.41311L43.8008 9.3675L44.1477 9.3429H46.9511H47.4702C47.6101 9.3429 47.6911 9.39991 47.6749 9.55176C47.6149 9.67839 47.6149 9.81823 47.5855 9.95207C47.4979 10.3956 47.4174 10.8403 47.334 11.2851C47.3298 11.2889 47.3271 11.294 47.3263 11.2996C47.3256 11.3052 47.3268 11.3109 47.3298 11.3157C47.2853 11.4268 47.2619 11.5453 47.2608 11.665C47.1263 12.2261 47.0285 12.7945 46.9235 13.3617L46.9145 13.4643C46.8484 13.6795 46.8034 13.9006 46.78 14.1245L46.777 14.1587C46.7368 14.258 46.7151 14.3637 46.7128 14.4708L46.7056 14.5308C46.6176 14.8659 46.5499 15.206 46.5028 15.5493C46.5028 15.5619 46.5028 15.5739 46.4986 15.5865C46.4322 15.8118 46.3866 16.0426 46.3623 16.2761C46.3581 16.2797 46.3553 16.2847 46.3544 16.2902C46.3535 16.2957 46.3546 16.3014 46.3575 16.3061C46.3158 16.4064 46.2942 16.5138 46.2939 16.6224L46.2903 16.6566C46.1523 17.2172 46.055 17.7856 45.9512 18.3533L45.944 18.4217C45.8864 18.6264 45.8431 18.8347 45.8144 19.0453C45.8108 19.0789 45.8078 19.1119 45.8042 19.1456C45.6841 19.5909 45.6241 20.0458 45.5323 20.4989C45.528 20.5018 45.5249 20.5061 45.5237 20.5112C45.5224 20.5162 45.5232 20.5215 45.5257 20.526C45.4903 20.5797 45.4696 20.6418 45.4657 20.706C45.4635 20.707 45.4615 20.7084 45.4599 20.7101C45.4582 20.7119 45.457 20.7139 45.4561 20.7161C45.4553 20.7184 45.4549 20.7207 45.455 20.7231C45.4551 20.7255 45.4557 20.7279 45.4567 20.73C45.0077 21.6819 44.1441 22.042 43.2108 22.2971C42.9707 22.3619 42.7307 22.3919 42.4852 22.4381L42.0651 22.4549H41.8664L41.5813 22.4417Z" fill="#B7B7B7"/>
<path d="M57.3992 11.4333C57.3992 11.6617 57.4002 11.8908 57.4022 12.1205C57.2366 13.358 56.9695 14.5776 56.742 15.8037C56.6406 16.3439 56.5434 16.8894 56.4419 17.4314C56.3219 18.0694 56.3987 18.705 56.4515 19.3412C56.4689 19.5554 56.4515 19.5812 56.2313 19.5812C55.2922 19.5812 54.3533 19.5824 53.4146 19.5848C53.2826 19.5848 53.15 19.592 53.0179 19.5956C52.7887 19.5398 52.7568 19.5008 52.7334 19.2601C52.7275 19.1917 52.7173 19.1238 52.7028 19.0567C52.6608 18.87 52.6062 18.8376 52.4454 18.9366C52.0973 19.1443 51.7486 19.3514 51.3849 19.5314L51.3506 19.5404L51.2138 19.6004L50.5536 19.8045H50.538L50.5242 19.8123C50.3936 19.8174 50.2641 19.839 50.1389 19.8765L49.936 19.8867H49.5543L49.2494 19.8747C49.1237 19.8369 48.9936 19.8153 48.8623 19.8105L48.8485 19.8027L48.8329 19.8057C48.5628 19.7133 48.2867 19.6364 48.0359 19.4924C47.5125 19.1958 47.1168 18.7168 46.9243 18.1468C46.919 18.04 46.8961 17.9347 46.8565 17.8353L46.8517 17.7663C46.8337 17.4518 46.8787 17.1415 46.9225 16.8318C46.9246 16.8306 46.9263 16.829 46.9277 16.8271C46.929 16.8252 46.93 16.823 46.9305 16.8207C46.931 16.8184 46.9311 16.816 46.9306 16.8137C46.9302 16.8114 46.9293 16.8092 46.9279 16.8072C47.0246 16.5377 47.1014 16.2617 47.2334 16.0048C47.4681 15.5481 47.806 15.1765 48.1715 14.8254L48.2141 14.7936L48.2441 14.7636L48.9391 14.2769L49.3707 14.0644C49.8256 13.84 50.3105 13.6941 50.7823 13.5123C50.784 13.5134 50.7859 13.5141 50.788 13.5143C50.79 13.5145 50.792 13.5143 50.794 13.5136C50.7959 13.5129 50.7976 13.5118 50.799 13.5103C50.8004 13.5088 50.8015 13.507 50.8021 13.5051C50.825 13.5048 50.8477 13.5018 50.8699 13.4961C51.6729 13.2158 52.4766 12.9373 53.2634 12.6126C53.5631 12.4922 53.8067 12.2637 53.9458 11.9722C54.1385 11.5749 54.1373 11.1584 54.0238 10.7418C53.9758 10.566 53.8438 10.4538 53.6715 10.3889C53.4361 10.3056 53.1827 10.2865 52.9375 10.3337C52.4784 10.4082 52.2365 10.7118 52.2485 11.1788C52.2527 11.3162 52.2815 11.4525 52.2929 11.5899C52.3115 11.8078 52.2281 11.9698 52.0234 12.0634C51.5829 12.2657 51.137 12.4547 50.6466 12.4908C50.0417 12.5352 49.5255 12.3581 49.193 11.8204C48.7267 11.0659 48.639 10.2479 48.8245 9.39086C48.8509 9.26782 48.9121 9.23721 49.019 9.30443C49.3953 9.5409 49.8154 9.59852 50.2463 9.58411C51.0752 9.54946 51.9013 9.46569 52.7202 9.33324C53.5047 9.2132 54.2897 9.18139 55.0777 9.30743C55.5018 9.38453 55.9194 9.49409 56.3267 9.63513C56.778 9.8752 57.1105 10.2215 57.2642 10.7232C57.3344 10.9561 57.3542 11.1968 57.3992 11.4333ZM53.6007 13.5513C53.2706 13.6815 52.9591 13.7829 52.6818 13.963C52.0313 14.3905 51.472 14.9427 51.0361 15.5877C50.6346 16.1716 50.3958 16.7928 50.5116 17.5184C50.5824 17.9614 50.9407 18.3413 51.3572 18.3779C51.6429 18.4031 51.8818 18.2644 52.1189 18.1378C52.542 17.9067 52.8511 17.5766 52.9291 17.0839C53.0605 16.2533 53.2454 15.4328 53.402 14.607C53.4657 14.2619 53.5317 13.9186 53.6007 13.5513Z" fill="#B7B7B7"/>
<path d="M46.4429 8.12695C48.2003 8.12695 49.625 6.70227 49.625 4.94482C49.625 3.18738 48.2003 1.7627 46.4429 1.7627C44.6854 1.7627 43.2607 3.18738 43.2607 4.94482C43.2607 6.70227 44.6854 8.12695 46.4429 8.12695Z" fill="#B7B7B7" stroke="#B7B7B7" stroke-width="0.41576"/>
<path d="M45.2627 1.99021L45.3756 2.2645M43.5078 4.92447C43.6789 5.32719 44.078 5.43642 44.4327 5.58946M44.8042 2.79325C44.0186 2.9829 43.5132 3.80875 43.5378 3.81355M45.5532 3.17136C45.3029 3.60889 45.2651 4.18565 45.3936 4.86865M46.4079 1.97221C46.6815 1.85637 47.1209 1.87438 47.6574 2.00162M44.9428 6.84203C44.8144 6.98127 44.7388 7.21474 44.677 7.47161M46.7007 2.68042C47.0344 2.86047 47.6472 3.16896 48.0337 3.6563M46.2032 6.7376C46.5102 7.12588 46.9444 7.39327 47.4294 7.49262M48.0139 4.82844C47.5265 5.12979 47.0057 5.3733 46.4619 5.55405M48.904 3.48105C48.8698 3.16836 48.7239 2.86707 48.5517 2.56758M49.3319 4.73301C49.3993 4.76415 49.4596 4.8086 49.5093 4.86368C49.559 4.91876 49.5971 4.98333 49.6212 5.05351M48.829 5.44902C48.8764 5.89675 48.6939 6.43091 48.5109 6.96687" stroke="#B7B7B7" stroke-width="0.41576"/>
<path d="M45.2781 2.01959C45.6974 1.93329 46.1259 1.90002 46.5535 1.92056C46.6699 2.13662 46.7137 2.42831 46.7689 2.71819C46.2732 2.91505 45.7985 3.11191 45.4906 3.29376C45.1629 3.12571 44.9828 3.0861 44.6017 2.84843C44.7277 2.54894 44.9564 2.27286 45.2781 2.01959ZM48.9038 3.4258C49.1162 3.86933 49.3239 4.31346 49.4079 4.76719C49.2081 5.06728 49.0004 5.40157 48.8317 5.55102C48.5587 5.39017 48.2316 5.1273 47.9135 4.89083C47.9207 4.37828 47.9399 3.99837 47.9543 3.57044C48.294 3.48522 48.6211 3.4156 48.9038 3.4258ZM43.3221 5.55162C43.1972 4.90322 43.2771 4.23199 43.5508 3.63106L43.6276 3.65207C43.5232 4.104 43.444 4.55233 43.5484 4.96045C43.4339 5.13702 43.3759 5.34427 43.3822 5.55462L43.3221 5.55162ZM45.3729 4.75459C45.7931 5.01206 46.203 5.26293 46.5991 5.50961C46.5637 5.97594 46.4136 6.39787 46.2912 6.82999C45.8555 6.96923 45.3717 6.8732 44.9108 6.87861C44.5693 6.39426 44.5159 5.98554 44.382 5.55822C44.6766 5.25029 45.0085 4.98033 45.3699 4.75459H45.3729ZM48.7747 7.10667C48.3165 7.60138 47.7129 7.93766 47.051 8.06695L46.9094 8.00273C47.0774 7.8869 47.1999 7.69064 47.3007 7.45598C47.6446 7.43437 48.1091 7.11327 48.5521 6.8456C48.6365 6.92257 48.7103 7.01035 48.7717 7.10667H48.7747ZM45.1695 7.85689C44.7458 7.67067 44.3677 7.39438 44.0616 7.04726C44.2716 7.23871 44.4457 7.40736 44.6935 7.42237C44.7187 7.5418 44.8418 7.67684 45.1665 7.85689H45.1695Z" fill="#F3F5F7"/>
</svg>
