<svg width="44" height="18" viewBox="0 0 44 18" fill="none" xmlns="http://www.w3.org/2000/svg">
<path d="M12.8871 10.449C12.782 10.4759 12.7299 10.5458 12.7108 10.6509C12.621 11.1515 12.515 11.6495 12.4938 12.1592C12.4773 12.3966 12.4985 12.6352 12.5567 12.866C12.6666 13.2567 12.9149 13.5259 13.3109 13.604C14.0346 13.7473 14.7002 13.6201 15.1916 13.0244C15.5611 12.576 15.7126 12.0597 15.4786 11.4858C15.4539 11.425 15.4404 11.3625 15.522 11.346C15.7864 11.2926 16.0521 11.2157 16.3204 11.3273C16.6282 11.4576 16.7798 11.6998 16.7832 12.022C16.7889 12.6176 16.5227 13.093 16.0682 13.4573C15.5181 13.8988 14.8812 14.1563 14.1874 14.2783C13.6942 14.3651 13.198 14.3521 12.7043 14.3009C12.0023 14.2279 11.3415 14.0295 10.7775 13.581C10.1697 13.0995 9.88361 12.4522 9.82978 11.6977C9.81067 11.4341 9.82674 11.1684 9.79678 10.8984C9.70648 11.1154 9.61878 11.3325 9.52543 11.5496C9.20459 12.2894 8.77825 12.9528 8.13309 13.4582C7.71245 13.7895 7.21969 14.017 6.69473 14.1224C6.66192 14.1269 6.62885 14.1292 6.59574 14.1294C6.52801 14.0964 6.46028 14.1315 6.39212 14.1315C5.02018 14.1281 3.64839 14.1281 2.27674 14.1315C2.11176 14.1315 1.94721 14.135 1.7627 14.1224C1.79352 14.0768 1.82261 14.0386 1.80958 13.9922C2.20423 13.3366 2.34099 12.6003 2.4847 11.8648C2.70178 10.7421 2.92971 9.62064 3.15157 8.49835C3.22581 8.12323 3.29527 7.74725 3.36864 7.37171C3.37638 7.35183 3.38248 7.33136 3.38688 7.31049C3.51626 6.67749 3.64535 6.04449 3.77415 5.41149C3.8404 5.20171 3.84161 4.9768 3.77762 4.76633C3.75678 4.66126 3.7342 4.5562 3.71467 4.45113C3.69513 4.33217 3.75287 4.30872 3.86228 4.30959C4.65158 4.3135 5.44131 4.30959 6.23061 4.30959C6.41686 4.30959 6.41686 4.30959 6.42294 4.49368C6.42231 4.5268 6.41971 4.55985 6.41513 4.59266C6.27359 5.31626 6.13162 6.03986 5.98922 6.76345C5.9458 6.97662 5.90803 7.19023 5.86331 7.42598C6.01093 7.33654 6.13466 7.26013 6.2597 7.18589C6.81238 6.8568 7.38851 6.61757 8.05364 6.66273C8.84945 6.71743 9.43686 7.08039 9.77811 7.81151C10.0243 8.33944 10.0755 8.90037 10.0386 9.47346C10.0325 9.57332 10.0273 9.67317 10.0217 9.7726C10.0913 9.63461 10.1539 9.49318 10.2092 9.34886C10.3911 8.92034 10.646 8.53568 10.926 8.16621C10.9413 8.15347 10.9558 8.13984 10.9694 8.1254C11.427 7.58968 12.0156 7.18176 12.6778 6.94146C13.4138 6.66363 14.2039 6.55962 14.9867 6.63755C15.3935 6.68096 15.7738 6.80904 16.142 6.98096L16.1442 6.98357C16.4333 7.15029 16.7125 7.3309 16.9413 7.5788C17.3034 7.97215 17.4571 8.44711 17.4848 8.9681C17.5049 9.41444 17.4648 9.86145 17.3654 10.2971C17.3524 10.3565 17.3468 10.4247 17.266 10.4382C17.2544 10.4293 17.2411 10.423 17.2268 10.4197C17.2126 10.4163 17.1979 10.4159 17.1835 10.4186H12.9423C12.9223 10.4197 12.9025 10.4219 12.8828 10.4251L12.8871 10.449ZM12.9648 9.79127L12.957 9.81167C12.9677 9.81569 12.9787 9.81846 12.99 9.81992H14.6155C14.6407 9.81992 14.6659 9.81992 14.6806 9.793C14.8174 9.74959 14.7909 9.62238 14.8135 9.52296C14.9464 8.9517 15.0204 8.36833 15.0345 7.78199C15.0401 7.44682 14.8174 7.22843 14.4848 7.21758C14.0159 7.20065 13.6916 7.42163 13.481 7.8254C13.1832 8.39588 13.0295 9.01195 12.9123 9.63974C12.901 9.70009 12.904 9.75523 12.9648 9.79127ZM4.94985 13.4712C5.0293 13.4712 5.10831 13.4712 5.18776 13.4712C5.21719 13.4695 5.24633 13.4644 5.2746 13.456C6.02308 13.2563 6.54624 12.8082 6.77114 12.0563C7.02512 11.2097 7.20139 10.3444 7.3668 9.4765C7.44549 9.05722 7.41377 8.62467 7.27476 8.22135C7.24868 8.12788 7.19473 8.04457 7.12012 7.98252C7.04551 7.92047 6.95376 7.88263 6.8571 7.87403C6.56969 7.83495 6.32309 7.92786 6.11295 8.12367C5.73176 8.47837 5.52728 8.92903 5.42525 9.42874C5.26418 10.2167 5.11222 11.006 4.95809 11.7953C4.8565 12.3163 4.75925 12.8347 4.65418 13.3535C4.63638 13.4438 4.65418 13.479 4.7497 13.4734C4.81613 13.4677 4.88299 13.4712 4.94985 13.4712Z" fill="#D42127"/>
<path d="M26.1481 14.3273C25.7139 14.3568 25.2837 14.3872 24.8491 14.3577C24.0641 14.3042 23.3057 14.1536 22.6084 13.7715C22.3401 13.6248 22.097 13.4411 21.9494 13.1611C21.7245 12.7343 21.8378 12.2138 22.1621 11.8322C22.7612 11.1284 24.0724 11.0047 24.8856 11.6285C24.9825 11.7007 25.0701 11.7847 25.1461 11.8786C25.2307 11.985 25.226 12.0458 25.1213 12.1326C25.0167 12.2194 24.9042 12.2997 24.8174 12.41C24.4358 12.895 24.6403 13.5584 25.2325 13.7281C25.7495 13.8762 26.1807 13.7494 26.5488 13.3422C27.2274 12.5906 27.6394 11.7071 27.8947 10.7407C27.952 10.5236 27.9963 10.3026 28.0402 10.0825C28.0545 10.0113 28.0805 9.91405 28.0163 9.8728C27.9638 9.83894 27.8973 9.91057 27.8426 9.94835C27.3134 10.3217 26.7412 10.6048 26.106 10.742C25.3349 10.9083 24.5686 10.9157 23.8171 10.63C22.9458 10.3004 22.311 9.40521 22.2871 8.47568C22.2828 7.99978 22.3601 7.52666 22.5155 7.07683C22.5268 7.04166 22.5342 7.00476 22.5433 6.96872C22.5594 6.93573 22.5776 6.90317 22.5911 6.86887C22.7525 6.45766 22.9837 6.0774 23.2744 5.74483C23.8558 5.08231 24.5969 4.66725 25.4113 4.36595C25.906 4.18948 26.4228 4.08253 26.947 4.04814C27.596 3.99691 28.2364 4.03121 28.8677 4.20314C29.1742 4.29457 29.4708 4.41661 29.7529 4.5674C29.766 4.58238 29.7806 4.59605 29.7963 4.60821C30.1321 4.81836 30.4326 5.0802 30.6868 5.38405C30.9269 5.66451 31.101 5.98536 31.2542 6.31922C31.2881 6.42906 31.3202 6.53978 31.3571 6.64918C31.437 6.88536 31.4505 7.13457 31.503 7.3764C31.5056 7.46612 31.5085 7.55585 31.5117 7.64557V8.02025C31.5117 8.10361 31.5069 8.18697 31.5043 8.27033C31.4839 8.43097 31.4687 8.59247 31.4414 8.75181C31.4005 8.9932 31.3515 9.23329 31.3059 9.47381C31.303 9.47598 31.3011 9.47915 31.3004 9.48269C31.2998 9.48622 31.3005 9.48988 31.3024 9.49292C31.2793 9.53275 31.2653 9.57725 31.2616 9.62316L31.2538 9.67092C31.1545 9.95515 31.055 10.2397 30.9551 10.5245C30.8844 10.6516 30.8229 10.7836 30.771 10.9196L30.7741 10.9165L30.7567 10.9486C30.7552 10.9493 30.7539 10.9503 30.7528 10.9515C30.7517 10.9527 30.7509 10.9542 30.7504 10.9557C30.7499 10.9572 30.7496 10.9589 30.7498 10.9605C30.7499 10.9621 30.7503 10.9637 30.751 10.9651C30.6759 11.0792 30.6105 11.1995 30.5557 11.3246C30.4955 11.4007 30.4448 11.4838 30.4046 11.5721L30.0516 12.0714C29.975 12.1469 29.9067 12.2304 29.848 12.3206L29.6153 12.572C29.6137 12.5718 29.612 12.5719 29.6104 12.5724C29.6089 12.5729 29.6074 12.5737 29.6061 12.5747C29.6049 12.5758 29.6039 12.5771 29.6031 12.5785C29.6024 12.58 29.6019 12.5816 29.6018 12.5832C29.5514 12.6219 29.5074 12.6684 29.4716 12.7209L28.9476 13.175C28.6397 13.3914 28.3209 13.5918 27.9924 13.7754L27.5417 13.9769C27.3794 14.0286 27.2174 14.0811 27.0551 14.1319C26.7629 14.2213 26.4533 14.2621 26.1481 14.3273ZM28.8034 6.53283C28.8051 6.20239 28.7695 5.87282 28.6975 5.55033C28.6137 5.17392 28.4274 4.86436 28.0462 4.72543C27.7462 4.61819 27.4384 4.6386 27.1371 4.73411C26.6895 4.87348 26.3934 5.19172 26.1451 5.56813C25.793 6.10128 25.5959 6.69173 25.4734 7.31475C25.3584 7.90086 25.3432 8.48046 25.5012 9.05963C25.6045 9.44125 25.8564 9.75037 26.2827 9.79769C26.8184 9.85544 27.2869 9.69306 27.6629 9.32012C28.437 8.556 28.7913 7.61171 28.8034 6.53109V6.53283Z" fill="#14B151"/>
<path d="M18.2094 8.3686L18.2202 8.32084C18.2637 8.09681 18.3119 7.87322 18.3505 7.64789C18.3731 7.52112 18.3284 7.47423 18.2007 7.48856C18.1056 7.49919 18.0097 7.5018 17.9142 7.49637C17.8356 7.49116 17.8239 7.45686 17.8543 7.39C17.8775 7.34136 17.9115 7.29862 17.9537 7.26497C18.1373 7.1065 18.3483 6.98667 18.5415 6.84166C18.9696 6.52125 19.2952 6.1036 19.633 5.69592C20.0502 5.19404 20.497 4.72471 21.0722 4.39866C21.4 4.21284 21.7404 4.05828 22.1225 4.02442C22.1845 4.0179 22.2471 4.0179 22.3091 4.02442C22.3634 4.03093 22.4511 4.02181 22.4563 4.08476C22.4612 4.12241 22.4553 4.16066 22.4393 4.19509C22.4234 4.22952 22.3979 4.25871 22.366 4.27927C22.3052 4.31516 22.2459 4.35365 22.188 4.39475C21.6935 4.74208 21.4243 5.24092 21.2463 5.79969C21.1624 6.07082 21.0927 6.34616 21.0375 6.62458C21.008 6.76786 21.0093 6.76829 21.1608 6.76829C21.4213 6.76829 21.6779 6.76829 21.9362 6.76829C22.063 6.76829 22.0847 6.79694 22.0595 6.91721C22.023 7.09087 21.9887 7.26801 21.9523 7.44297C21.9453 7.47466 21.9414 7.5107 21.8997 7.52025C21.6006 7.52025 21.3015 7.52025 21.0023 7.52025C20.9659 7.52025 20.9155 7.4955 20.896 7.55455C20.8139 7.62358 20.8156 7.72561 20.7974 7.81504C20.6307 8.66947 20.4657 9.52331 20.3025 10.3766C20.2017 10.9002 20.111 11.4255 19.9912 11.9452C19.9651 12.0585 19.9287 12.1696 19.9043 12.2834C19.8423 12.5712 19.9938 12.7657 20.2877 12.7831C20.4796 12.7944 20.6585 12.7358 20.8373 12.6806C20.9203 12.6555 20.9602 12.6555 20.935 12.7649C20.721 13.6918 19.8839 14.3582 18.9449 14.3226C18.3696 14.3005 17.8803 14.0943 17.5764 13.5685C17.3732 13.2173 17.3702 12.8448 17.4461 12.4549C17.7066 11.1138 17.9528 9.77092 18.2042 8.42851C18.2071 8.40866 18.2089 8.38865 18.2094 8.3686Z" fill="#D42128"/>
<path d="M30.3039 16.2343L30.2313 16.2295C30.1583 16.2022 30.0814 16.1865 30.0034 16.183L29.993 16.1774H29.9817C29.9383 16.134 29.8423 16.1731 29.8311 16.0797L29.8584 16.0537L29.8927 16.0276C29.8943 16.0281 29.8959 16.0283 29.8975 16.0281C29.8991 16.0279 29.9007 16.0274 29.9021 16.0265C29.9034 16.0256 29.9046 16.0245 29.9055 16.0231C29.9063 16.0217 29.9069 16.0201 29.907 16.0185C29.9408 15.9882 29.9747 15.9579 30.0086 15.9278C30.0722 15.8922 30.125 15.8402 30.1614 15.7771C30.2164 15.7392 30.2603 15.6873 30.2887 15.6269H30.2865C30.2934 15.6258 30.2996 15.6222 30.3038 15.6167C30.3081 15.6112 30.3101 15.6043 30.3095 15.5974C30.4198 15.4729 30.5046 15.3281 30.5591 15.171C30.5738 15.1512 30.5867 15.1301 30.5978 15.1081C30.7923 14.6305 30.8583 14.1208 30.9555 13.6189L30.9612 13.5725C31.0165 13.3743 31.0577 13.1725 31.0845 12.9685C31.1096 12.949 31.104 12.9217 31.1023 12.8952L31.1101 12.8214C31.1719 12.5901 31.2202 12.3554 31.2547 12.1185L31.2573 12.0928C31.2898 12.0048 31.3076 11.9119 31.3098 11.818C31.3454 11.7397 31.3628 11.6544 31.3606 11.5684C31.4422 11.2371 31.5108 10.9033 31.5603 10.5655L31.5659 10.5603L31.5629 10.5529C31.6415 10.226 31.7114 9.89731 31.7587 9.56388C31.7617 9.56141 31.7637 9.55794 31.7644 9.55411C31.765 9.55028 31.7642 9.54635 31.7622 9.54304C31.8443 9.21968 31.9098 8.89234 31.9584 8.56228C31.9615 8.55987 31.9636 8.55639 31.9642 8.55253C31.9649 8.54868 31.964 8.54472 31.9619 8.54144C31.9933 8.46052 32.0102 8.37469 32.0118 8.28789C32.0227 8.25273 32.0361 8.21799 32.0448 8.18196C32.1269 7.8381 32.1508 7.49642 32.011 7.15995C31.9945 7.03361 31.9037 6.93419 31.8807 6.80958L31.9094 6.77659L32.1603 6.75879H34.1883H34.5638C34.665 6.75879 34.7236 6.80003 34.7119 6.90988C34.6684 7.00148 34.6684 7.10264 34.6472 7.19946C34.5838 7.5203 34.5256 7.84201 34.4653 8.16372C34.4622 8.16647 34.4603 8.17019 34.4597 8.17424C34.4591 8.17829 34.46 8.18241 34.4622 8.18586C34.4301 8.26627 34.4131 8.35195 34.4123 8.43854C34.315 8.84448 34.2443 9.25563 34.1683 9.66591L34.1618 9.74015C34.114 9.89582 34.0814 10.0558 34.0645 10.2177L34.0624 10.2425C34.0333 10.3143 34.0175 10.3908 34.0159 10.4682L34.0107 10.5116C33.947 10.7541 33.898 11.0001 33.8639 11.2484C33.8639 11.2575 33.8639 11.2662 33.8609 11.2753C33.8129 11.4383 33.7799 11.6052 33.7624 11.7742C33.7593 11.7768 33.7573 11.7804 33.7566 11.7844C33.756 11.7884 33.7568 11.7924 33.7589 11.7959C33.7287 11.8684 33.7131 11.9461 33.7129 12.0247L33.7103 12.0494C33.6104 12.4549 33.5401 12.8661 33.465 13.2768L33.4597 13.3263C33.4181 13.4743 33.3868 13.625 33.366 13.7774C33.3634 13.8017 33.3612 13.8256 33.3586 13.8499C33.2718 14.172 33.2283 14.5011 33.1619 14.8289C33.1588 14.831 33.1566 14.8341 33.1557 14.8377C33.1548 14.8414 33.1553 14.8452 33.1571 14.8484C33.1315 14.8873 33.1166 14.9322 33.1137 14.9787C33.1121 14.9794 33.1107 14.9804 33.1095 14.9817C33.1084 14.9829 33.1074 14.9844 33.1068 14.986C33.1062 14.9876 33.1059 14.9893 33.106 14.9911C33.1061 14.9928 33.1065 14.9945 33.1072 14.9961C32.7825 15.6846 32.1577 15.9451 31.4826 16.1296C31.3089 16.1765 31.1353 16.1982 30.9577 16.2317L30.6538 16.2438H30.5101L30.3039 16.2343Z" fill="#14B151"/>
<path d="M41.7461 8.27091C41.7461 8.43618 41.7468 8.60189 41.7483 8.76802C41.6285 9.66326 41.4353 10.5455 41.2707 11.4324C41.1973 11.8232 41.127 12.2178 41.0536 12.6099C40.9668 13.0714 41.0224 13.5312 41.0606 13.9914C41.0732 14.1464 41.0606 14.165 40.9012 14.165C40.2219 14.165 39.5428 14.1659 38.8637 14.1676C38.7682 14.1676 38.6723 14.1729 38.5768 14.1755C38.4109 14.1351 38.3879 14.1069 38.371 13.9328C38.3667 13.8833 38.3593 13.8341 38.3488 13.7856C38.3184 13.6506 38.2789 13.6271 38.1626 13.6988C37.9108 13.849 37.6585 13.9988 37.3954 14.129L37.3707 14.1355L37.2717 14.1789L36.7941 14.3265H36.7828L36.7728 14.3322C36.6783 14.3359 36.5847 14.3515 36.4941 14.3786L36.3474 14.386H36.0712L35.8507 14.3773C35.7597 14.35 35.6656 14.3344 35.5707 14.3309L35.5607 14.3252L35.5494 14.3274C35.354 14.2606 35.1543 14.205 34.9728 14.1008C34.5942 13.8862 34.3079 13.5397 34.1688 13.1274C34.1649 13.0501 34.1483 12.974 34.1197 12.9021L34.1162 12.8521C34.1032 12.6246 34.1358 12.4002 34.1675 12.1762C34.1689 12.1753 34.1702 12.1741 34.1712 12.1727C34.1722 12.1713 34.1729 12.1698 34.1732 12.1681C34.1736 12.1664 34.1736 12.1647 34.1733 12.163C34.173 12.1614 34.1723 12.1598 34.1714 12.1584C34.2413 11.9634 34.2968 11.7637 34.3923 11.5779C34.5621 11.2475 34.8065 10.9788 35.0709 10.7248L35.1018 10.7018L35.1235 10.6801L35.6262 10.328L35.9384 10.1743C36.2675 10.0119 36.6183 9.90639 36.9595 9.77484C36.9608 9.77564 36.9622 9.77614 36.9636 9.77631C36.9651 9.77648 36.9666 9.7763 36.968 9.7758C36.9694 9.77529 36.9706 9.77447 36.9716 9.7734C36.9727 9.77233 36.9734 9.77104 36.9739 9.76963C36.9904 9.76947 37.0069 9.76728 37.0229 9.76311C37.6038 9.56036 38.1852 9.35891 38.7543 9.12403C38.9711 9.03697 39.1473 8.87163 39.248 8.66079C39.3873 8.37337 39.3865 8.07207 39.3044 7.77076C39.2697 7.64355 39.1742 7.56237 39.0496 7.51548C38.8793 7.45519 38.696 7.44141 38.5186 7.47554C38.1865 7.52937 38.0115 7.74906 38.0202 8.08683C38.0232 8.18625 38.044 8.28481 38.0523 8.38423C38.0658 8.54183 38.0054 8.65905 37.8574 8.72678C37.5387 8.87309 37.2161 9.00985 36.8614 9.0359C36.4238 9.06803 36.0504 8.93995 35.8099 8.55095C35.4725 8.00521 35.4091 7.41345 35.5433 6.79348C35.5624 6.70447 35.6067 6.68233 35.684 6.73096C35.9562 6.90201 36.2601 6.94369 36.5718 6.93327C37.1714 6.90821 37.769 6.84761 38.3614 6.7518C38.9289 6.66496 39.4967 6.64195 40.0668 6.73313C40.3736 6.7889 40.6756 6.86815 40.9703 6.97018C41.2968 7.14384 41.5373 7.39435 41.6484 7.7573C41.6992 7.92576 41.7135 8.09986 41.7461 8.27091ZM38.9983 9.80305C38.7595 9.89727 38.5342 9.97064 38.3336 10.1009C37.8631 10.4101 37.4584 10.8096 37.1432 11.2762C36.8527 11.6986 36.6799 12.1479 36.7637 12.6728C36.8149 12.9932 37.0741 13.2681 37.3754 13.2946C37.5821 13.3128 37.7549 13.2125 37.9264 13.1209C38.2325 12.9537 38.4561 12.715 38.5125 12.3585C38.6076 11.7576 38.7413 11.1641 38.8546 10.5667C38.9006 10.3171 38.9484 10.0688 38.9983 9.80305Z" fill="#14B151"/>
<path d="M33.8205 5.8792C35.0918 5.8792 36.1224 4.8486 36.1224 3.57729C36.1224 2.30599 35.0918 1.27539 33.8205 1.27539C32.5492 1.27539 31.5186 2.30599 31.5186 3.57729C31.5186 4.8486 32.5492 5.8792 33.8205 5.8792Z" fill="white" stroke="black" stroke-width="0.300754"/>
<path d="M32.9667 1.44004L33.0484 1.63846M31.6973 3.56264C31.821 3.85396 32.1097 3.93298 32.3663 4.04369M32.635 2.02095C32.0667 2.15814 31.7012 2.75554 31.719 2.75902M33.1769 2.29447C32.9958 2.61097 32.9685 3.02819 33.0614 3.52226M33.7951 1.42702C33.9931 1.34323 34.3109 1.35625 34.699 1.44829M32.7353 4.94977C32.6424 5.0505 32.5877 5.21939 32.543 5.4052M34.007 1.93933C34.2484 2.06957 34.6916 2.29273 34.9712 2.64527M33.6471 4.87423C33.8691 5.1551 34.1833 5.34853 34.534 5.4204M34.9569 3.49318C34.6043 3.71116 34.2276 3.88732 33.8342 4.01807M35.6008 2.51849C35.576 2.2923 35.4705 2.07435 35.3459 1.8577M35.9103 3.42414C35.959 3.44667 36.0027 3.47882 36.0387 3.51866C36.0746 3.55851 36.1022 3.60522 36.1196 3.65599M35.5465 3.94209C35.5808 4.26598 35.4488 4.65238 35.3164 5.04008" stroke="black" stroke-width="0.300754"/>
<path d="M32.978 1.46066C33.2813 1.39823 33.5913 1.37416 33.9006 1.38902C33.9848 1.54532 34.0165 1.75632 34.0564 1.96602C33.6978 2.10842 33.3544 2.25083 33.1317 2.38238C32.8946 2.26081 32.7644 2.23216 32.4887 2.06023C32.5799 1.84359 32.7453 1.64387 32.978 1.46066ZM35.6007 2.47789C35.7544 2.79873 35.9046 3.12001 35.9654 3.44823C35.8209 3.66531 35.6706 3.90714 35.5486 4.01524C35.3511 3.89889 35.1145 3.70873 34.8844 3.53767C34.8896 3.1669 34.9035 2.89208 34.9139 2.58252C35.1596 2.52087 35.3962 2.47051 35.6007 2.47789ZM31.5631 4.01568C31.4727 3.54663 31.5305 3.06108 31.7285 2.62637L31.7841 2.64157C31.7085 2.96849 31.6512 3.29281 31.7267 3.58803C31.6439 3.71576 31.602 3.86569 31.6065 4.01785L31.5631 4.01568ZM33.0466 3.43912C33.3505 3.62537 33.647 3.80685 33.9336 3.98529C33.908 4.32263 33.7994 4.62784 33.7108 4.94043C33.3956 5.04116 33.0457 4.97169 32.7123 4.9756C32.4652 4.62523 32.4266 4.32957 32.3298 4.02045C32.5429 3.7977 32.783 3.60241 33.0444 3.43912H33.0466ZM35.5074 5.14058C35.1759 5.49845 34.7392 5.7417 34.2605 5.83523L34.158 5.78878C34.2796 5.70498 34.3682 5.56302 34.4411 5.39326C34.6899 5.37763 35.0259 5.14536 35.3463 4.95172C35.4074 5.0074 35.4608 5.0709 35.5052 5.14058H35.5074ZM32.8994 5.68328C32.5929 5.54856 32.3194 5.34871 32.098 5.0976C32.2499 5.23609 32.3758 5.35809 32.5551 5.36895C32.5734 5.45534 32.6624 5.55303 32.8972 5.68328H32.8994Z" fill="black"/>
</svg>
