<svg width="20" height="18" viewBox="0 0 20 18" fill="none" xmlns="http://www.w3.org/2000/svg">
<path d="M5.95054 3.8646C5.87433 3.89942 5.76002 3.95164 5.60761 4.02128C5.25707 4.19536 4.98273 4.2911 4.7846 4.30851C4.43405 4.36074 3.90062 4.41296 3.18429 4.46518L1.26392 4.64797C1.14199 4.66538 1.05816 4.70019 1.01244 4.75242C0.966717 4.80464 0.951476 4.90039 0.966717 5.03965C0.966717 5.12669 0.974338 5.18762 0.989579 5.22244L0.28087 5.30077C0.158942 5.31818 0.0789268 5.353 0.0408242 5.40522C0.00272161 5.45745 -0.00870916 5.54449 0.00653187 5.66634C0.052255 6.48453 0.12846 7.69439 0.235147 9.29594L0.258009 9.55706C0.258009 9.67892 0.28087 9.76596 0.326594 9.81818C0.372317 9.87041 0.459953 9.89217 0.589502 9.88346C0.71905 9.87476 0.928614 9.853 1.21819 9.81818H1.28678V10.0532C1.30202 10.175 1.32488 10.2534 1.35536 10.2882C1.38585 10.323 1.46205 10.3317 1.58398 10.3143L2.68133 10.236C2.84898 10.2186 2.95186 10.2229 2.98996 10.249C3.02807 10.2751 3.08522 10.3752 3.16143 10.5493L3.77869 12.0377L6.17915 17.6518C6.25536 17.8259 6.32775 17.9304 6.39634 17.9652C6.46492 18 6.57542 18.0087 6.72783 17.9913C7.30699 17.9565 7.74136 17.9217 8.03094 17.8868C8.15287 17.8694 8.22907 17.8346 8.25955 17.7824C8.29003 17.7302 8.27479 17.6431 8.21383 17.5213C8.13762 17.3298 8.00808 17.0251 7.82518 16.6074L7.25364 15.2756C6.46111 13.4478 5.86671 12.0812 5.47044 11.176C5.36376 10.8801 5.38281 10.632 5.5276 10.4318C5.67239 10.2316 5.86671 10.175 6.11057 10.2621L13.6092 12.3772L14.5693 12.6383L13.7692 0.261122C13.7387 0.261122 13.693 0.269827 13.632 0.287235L5.95054 3.8646ZM15.781 0.208899C15.7658 0.19149 15.7505 0.174082 15.7353 0.156673C15.6438 0.0522251 15.5829 0 15.5524 0C15.3695 0 15.0875 0.0174084 14.7065 0.0522251L14.2721 0.0783367L15.0952 12.6905L16.2154 12.6122C16.3678 12.5948 16.4669 12.5556 16.5126 12.4947C16.5583 12.4338 16.5735 12.3162 16.5583 12.1422L15.8039 0.391684C15.8039 0.374275 15.8039 0.343811 15.8039 0.300291C15.8039 0.256771 15.7962 0.226307 15.781 0.208899ZM18.1129 7.9381C17.9757 7.85106 17.8347 7.8293 17.6899 7.87282C17.5452 7.91634 17.4385 8.01209 17.3699 8.16006C17.3013 8.30803 17.2822 8.45164 17.3127 8.59091C17.3432 8.73017 17.4118 8.84333 17.5185 8.93037C17.8081 9.19149 18.2577 9.56576 18.8673 10.0532C18.9283 10.088 18.9664 10.1054 18.9816 10.1054C19.1188 10.1576 19.2445 10.1533 19.3588 10.0924C19.4731 10.0314 19.5608 9.93133 19.6217 9.79207C19.6827 9.68762 19.698 9.55706 19.6675 9.40039C19.637 9.24371 19.576 9.13056 19.4846 9.06093C19.1798 8.79981 18.7225 8.42553 18.1129 7.9381ZM17.2441 4.33462C17.3508 4.42166 17.4613 4.45648 17.5756 4.43907C17.6899 4.42166 17.8004 4.36074 17.9071 4.25629C18.4253 3.69923 18.8063 3.27273 19.0502 2.97679C19.0807 2.94197 19.1188 2.88975 19.1645 2.82012L19.1874 2.76789C19.2636 2.41973 19.195 2.17602 18.9816 2.03675C18.8749 1.96712 18.7606 1.93666 18.6387 1.94536C18.5168 1.95406 18.4101 2.00194 18.3186 2.08897L17.93 2.53288C17.5947 2.91586 17.3432 3.2031 17.1756 3.39458C17.1146 3.44681 17.0651 3.5295 17.027 3.64265C16.9889 3.7558 16.9889 3.87766 17.027 4.00822C17.0651 4.13878 17.1375 4.24758 17.2441 4.33462ZM19.4846 5.32689C18.8902 5.3617 18.311 5.41393 17.7471 5.48356C17.6252 5.50097 17.5261 5.5619 17.4499 5.66634C17.3737 5.77079 17.3356 5.897 17.3356 6.04497C17.3356 6.19294 17.3699 6.3235 17.4385 6.43665C17.5071 6.54981 17.6099 6.62379 17.7471 6.65861L17.8157 6.68472L19.576 6.52805C19.7132 6.51064 19.8199 6.44101 19.8961 6.31915C19.9723 6.19729 20.0066 6.05803 19.999 5.90135C19.9913 5.74468 19.938 5.60977 19.8389 5.49661C19.7399 5.38346 19.6217 5.32689 19.4846 5.32689Z" fill="#F1F1F1"/>
</svg>
