<svg width="20" height="20" viewBox="0 0 20 20" fill="none" xmlns="http://www.w3.org/2000/svg">
<path d="M2.91621 17.0833C3.60788 17.775 4.72454 17.775 5.41621 17.0833L16.2495 6.24995C16.9412 5.55828 16.9412 4.44162 16.2495 3.74995C15.5579 3.05828 14.4412 3.05828 13.7495 3.74995L2.91621 14.5833C2.22454 15.275 2.22454 16.3916 2.91621 17.0833Z" stroke="#F1F1F1" stroke-width="1.5" stroke-linecap="round" stroke-linejoin="round"/>
<path d="M15.0088 7.4917L12.5088 4.9917" stroke="#F1F1F1" stroke-width="1.5" stroke-linecap="round" stroke-linejoin="round"/>
<path d="M7.08301 2.03341L8.33301 1.66675L7.96634 2.91675L8.33301 4.16675L7.08301 3.80008L5.83301 4.16675L6.19967 2.91675L5.83301 1.66675L7.08301 2.03341Z" stroke="#F1F1F1" stroke-linecap="round" stroke-linejoin="round"/>
<path d="M3.75 7.03341L5 6.66675L4.63333 7.91675L5 9.16675L3.75 8.80008L2.5 9.16675L2.86667 7.91675L2.5 6.66675L3.75 7.03341Z" stroke="#F1F1F1" stroke-linecap="round" stroke-linejoin="round"/>
<path d="M16.25 11.1999L17.5 10.8333L17.1333 12.0833L17.5 13.3333L16.25 12.9666L15 13.3333L15.3667 12.0833L15 10.8333L16.25 11.1999Z" stroke="#F1F1F1" stroke-linecap="round" stroke-linejoin="round"/>
</svg>
