<svg width="50" height="25" viewBox="0 0 50 25" fill="none" xmlns="http://www.w3.org/2000/svg">
<g clip-path="url(#clip0_208_437)">
<path d="M21.8506 10.3084H24.3902V16.6688H26.365V10.3084H28.9032V8.33362H21.8506V10.3084Z" fill="#B7B7B7"/>
<path d="M25.0025 0C11.194 0 0 5.59774 0 12.5005C0 19.4033 11.194 25.0025 25.0025 25.0025C38.8111 25.0025 50.0051 19.4048 50.0051 12.5005C50.0051 5.59624 38.8111 0 25.0025 0ZM25.0025 23.0292C12.2848 23.0292 1.97329 18.317 1.97329 12.502C1.97329 6.68702 12.2848 1.97329 25.0025 1.97329C37.7203 1.97329 48.0318 6.68702 48.0318 12.5005C48.0318 18.314 37.7218 23.0278 25.0025 23.0278V23.0292Z" fill="#B7B7B7"/>
<path d="M35.4444 13.2961L31.8634 8.33362H29.8916V16.6688H31.8634V11.7078L35.4444 16.6688H37.4177V8.33362H35.4444V13.2961Z" fill="#B7B7B7"/>
<path d="M16.6961 11.7078L14.5041 8.33362H12.5293V16.6688H14.5041V11.9551L16.0009 14.2565H17.3914L18.8882 11.9551V16.6688H20.8615V8.33362H18.8882L16.6961 11.7078Z" fill="#B7B7B7"/>
</g>
<defs>
<clipPath id="clip0_208_437">
<rect width="50.0051" height="25.0025" fill="white"/>
</clipPath>
</defs>
</svg>
