<svg width="23" height="20" viewBox="0 0 23 20" fill="none" xmlns="http://www.w3.org/2000/svg">
<path d="M1.84111 3.137L20.0866 1.00657C20.271 0.984923 20.4595 1.017 20.6303 1.0991C20.8012 1.1812 20.9474 1.30995 21.0521 1.47048C21.1568 1.631 21.2157 1.81674 21.222 2.0062C21.2283 2.19566 21.1816 2.3811 21.0875 2.54109L11.7837 18.3802C11.6884 18.5427 11.5482 18.6722 11.3796 18.7533C11.2111 18.8345 11.0214 18.8639 10.8331 18.838C10.6448 18.8121 10.4658 18.732 10.3175 18.6073C10.1691 18.4825 10.0577 18.3184 9.9963 18.1343L7.94574 11.9789C7.92059 11.9035 7.91759 11.823 7.93712 11.7475C7.95664 11.672 7.99784 11.6048 8.05555 11.5543L14.115 6.25711C14.1402 6.23479 14.1591 6.206 14.1698 6.17356C14.1805 6.14111 14.1826 6.1061 14.176 6.07193L14.1602 6.02208C14.1406 5.98075 14.1081 5.94685 14.0678 5.92592C14.0276 5.90498 13.9821 5.89822 13.9387 5.90674L13.8961 5.91999L6.61239 9.32609C6.54296 9.35836 6.46499 9.36883 6.38816 9.3562C6.31132 9.34357 6.23902 9.30839 6.18024 9.25504L1.34607 4.87258C1.20219 4.74232 1.09672 4.57412 1.04221 4.388C0.987693 4.20188 0.986445 4.0057 1.03861 3.82282C1.09077 3.63993 1.19415 3.47805 1.33643 3.35646C1.4787 3.23487 1.65389 3.15869 1.84111 3.137V3.137Z" stroke="#F1F1F1" stroke-width="2"/>
</svg>
