<svg width="20" height="20" viewBox="0 0 20 20" fill="none" xmlns="http://www.w3.org/2000/svg">
<path d="M11.7754 9.44999C12.1004 8.08332 10.9088 6.89161 9.5421 7.21661C8.90043 7.37494 8.37543 7.89996 8.2171 8.54163C7.8921 9.9083 9.08376 11.1 10.4504 10.775C11.1004 10.6166 11.6254 10.0917 11.7754 9.44999Z" stroke="#F1F1F1" stroke-width="1.5" stroke-linecap="round" stroke-linejoin="round"/>
<path d="M15.0081 14.3251C16.4331 12.9917 17.3248 11.1001 17.3248 8.99173C17.3248 4.94173 14.0415 1.66675 9.9998 1.66675C5.95813 1.66675 2.6748 4.95006 2.6748 8.99173C2.6748 11.1084 3.5748 13.0167 5.01647 14.3501" stroke="#F1F1F1" stroke-width="1.5" stroke-linecap="round" stroke-linejoin="round"/>
<path d="M6.66648 12.1251C5.89981 11.3084 5.4248 10.2084 5.4248 8.99174C5.4248 6.46674 7.47481 4.41675 9.99981 4.41675C12.5248 4.41675 14.5748 6.46674 14.5748 8.99174C14.5748 10.2084 14.0998 11.3001 13.3331 12.1251" stroke="#F1F1F1" stroke-width="1.5" stroke-linecap="round" stroke-linejoin="round"/>
<path d="M8.58295 13.8834L7.38295 15.3751C6.43295 16.5668 7.27461 18.3251 8.79961 18.3251H11.1913C12.7163 18.3251 13.5663 16.5584 12.608 15.3751L11.4079 13.8834C10.6913 12.9751 9.30795 12.9751 8.58295 13.8834Z" stroke="#F1F1F1" stroke-width="1.5" stroke-linecap="round" stroke-linejoin="round"/>
</svg>
