<svg width="20" height="20" viewBox="0 0 20 20" fill="none" xmlns="http://www.w3.org/2000/svg">
<path d="M12.848 16.4767C12.8473 15.983 12.9795 15.4983 13.2305 15.0731L6.92159 11.3987C6.67754 11.8179 6.32801 12.1655 5.9075 12.4072C5.48699 12.6489 5.01044 12.7761 4.52543 12.776C3.78944 12.7757 3.08331 12.4832 2.56289 11.9628C2.04246 11.4424 1.75029 10.7365 1.75 10.0005C1.75029 9.26465 2.04297 8.55905 2.56342 8.0388C3.08388 7.51855 3.78954 7.22618 4.52543 7.22618C5.0106 7.22596 5.48734 7.35303 5.90803 7.5947C6.32873 7.83637 6.67844 8.18419 6.92266 8.60341L13.2262 4.92364C12.9781 4.49949 12.8473 4.0168 12.848 3.52543C12.8481 3.16082 12.9203 2.79973 13.0599 2.46292C13.1996 2.12612 13.404 1.82007 13.6619 1.56235C13.9198 1.30463 14.2261 1.10029 14.563 0.960888C14.8999 0.82149 15.2609 0.749856 15.6255 0.75C15.99 0.75 16.3508 0.821667 16.6875 0.961157C17.0242 1.10065 17.3299 1.30515 17.5875 1.56289C17.8452 1.82062 18.0496 2.12674 18.189 2.46346C18.3284 2.80018 18.4 3.16101 18.3999 3.52543C18.4 3.8898 18.3284 4.25047 18.189 4.58713C18.0496 4.92379 17.8452 5.22979 17.5875 5.48744C17.3299 5.74508 17.0242 5.94926 16.6875 6.08863C16.3509 6.228 15.9899 6.29966 15.6255 6.29952C15.1402 6.29979 14.6634 6.17299 14.2424 5.93154C13.8214 5.69009 13.471 5.34268 13.2262 4.92364L6.92266 8.60341C7.16998 9.02742 7.30034 9.50967 7.29978 10.0005C7.3006 10.4916 7.16983 10.974 6.92159 11.3977L13.2305 15.0721C13.4749 14.6538 13.8248 14.3069 14.2451 14.066C14.6654 13.8252 15.1411 13.6986 15.6255 13.6991C15.99 13.6991 16.3513 13.771 16.688 13.9106C17.0248 14.0501 17.3304 14.2547 17.5881 14.5126C17.8457 14.7704 18.0503 15.0766 18.1895 15.4134C18.3288 15.7503 18.4002 16.1111 18.3999 16.4756C18.3999 17.2114 18.1078 17.9171 17.5875 18.4374C17.0673 18.9577 16.3613 19.25 15.6255 19.25C14.8895 19.2503 14.1838 18.9582 13.663 18.4382C13.1422 17.9182 12.8488 17.2127 12.848 16.4767V16.4767Z" stroke="#F1F1F1" stroke-width="1.2" stroke-linecap="round"/>
</svg>
